<mxfile host="app.diagrams.net" modified="2023-06-04T20:46:55.553Z" agent="Mozilla/5.0 (Windows NT 10.0; Win64; x64) AppleWebKit/537.36 (KHTML, like Gecko) Chrome/113.0.0.0 Safari/537.36 Edg/113.0.1774.57" etag="-i5AcLmtCXsKrYdjt5rK" version="21.3.6" type="github">
  <diagram name="Página-1" id="g2ze5FKwA5Kn9ZE8GGk7">
    <mxGraphModel dx="825" dy="444" grid="0" gridSize="10" guides="1" tooltips="1" connect="1" arrows="1" fold="1" page="1" pageScale="1" pageWidth="827" pageHeight="1169" math="0" shadow="0">
      <root>
        <mxCell id="0" />
        <mxCell id="1" parent="0" />
        <mxCell id="kvPxknZWzfeohioQZRx2-5" style="edgeStyle=orthogonalEdgeStyle;rounded=0;orthogonalLoop=1;jettySize=auto;html=1;entryX=0.5;entryY=0;entryDx=0;entryDy=0;" edge="1" parent="1" source="kvPxknZWzfeohioQZRx2-1" target="kvPxknZWzfeohioQZRx2-2">
          <mxGeometry relative="1" as="geometry" />
        </mxCell>
        <mxCell id="kvPxknZWzfeohioQZRx2-1" value="Inserir dois números" style="rounded=0;whiteSpace=wrap;html=1;" vertex="1" parent="1">
          <mxGeometry x="361" y="63" width="120" height="60" as="geometry" />
        </mxCell>
        <mxCell id="kvPxknZWzfeohioQZRx2-6" style="edgeStyle=orthogonalEdgeStyle;rounded=0;orthogonalLoop=1;jettySize=auto;html=1;entryX=0.5;entryY=0;entryDx=0;entryDy=0;" edge="1" parent="1" source="kvPxknZWzfeohioQZRx2-2" target="kvPxknZWzfeohioQZRx2-3">
          <mxGeometry relative="1" as="geometry" />
        </mxCell>
        <mxCell id="kvPxknZWzfeohioQZRx2-2" value="Somar os números inseridos" style="rounded=1;whiteSpace=wrap;html=1;" vertex="1" parent="1">
          <mxGeometry x="361" y="190" width="120" height="60" as="geometry" />
        </mxCell>
        <mxCell id="kvPxknZWzfeohioQZRx2-3" value="Exibir resultado da soma dos dois números" style="rounded=1;whiteSpace=wrap;html=1;" vertex="1" parent="1">
          <mxGeometry x="361" y="317" width="120" height="60" as="geometry" />
        </mxCell>
      </root>
    </mxGraphModel>
  </diagram>
</mxfile>
